#!OML:ASF I:\Actors\actors\Patient Classification 1\Patient 1\Session 1\Subject1.ASF
:FULLY-SPECIFIED
:DEGREES
771
root 0.56219 17.4964 8.52366 6.63309 2.04466 -9.16963
lowerback 6.34508 0.50873 6.79302
upperback -5.86079 1.79976 4.18982
thorax -9.78976 0.577205 0.415277
lowerneck -9.93009 -5.56223 -3.37784
upperneck 14.3882 -8.07109 6.42355
head 6.40797 -3.59822 1.89529
rclavicle 5.36719e-015 8.82604e-014
rhumerus -7.51299 18.506 -75.0075
rradius 82.4223
rwrist -18.0743
rhand 1.85547 -56.702
rfingers 7.12502
rthumb 27.3664 -84.7351
lclavicle 5.36719e-015 8.82604e-014
lhumerus -50.3588 -0.965686 89.7818
lradius 88.6278
lwrist 65.233
lhand -36.002 14.2699
lfingers 7.12502
lthumb -9.11169 44.0531
rfemur -7.38697 13.4674 25.3715
rtibia 9.94502
rfoot -13.9979 -20.8208
rtoes 2.88975
lfemur -2.39416 -28.3604 -4.82796
ltibia 0.4656
lfoot -10.0747 33.2571
ltoes -8.44595
772
root 0.543357 17.4918 8.54423 6.5034 2.38323 -9.17586
lowerback 6.01875 0.40458 6.58595
upperback -6.06378 1.60652 4.04054
thorax -9.8257 0.488629 0.403362
lowerneck -9.88826 -5.4691 -3.32002
upperneck 14.4947 -7.96927 6.46696
head 6.4288 -3.54178 1.90971
rclavicle 6.11263e-015 4.96962e-014
rhumerus -10.2377 18.802 -75.7404
rradius 84.9239
rwrist -16.7987
rhand 1.64987 -55.8999
rfingers 7.12502
rthumb 27.1697 -83.9639
lclavicle 6.11263e-015 4.96962e-014
lhumerus -50.464 -1.1161 89.7158
lradius 88.6291
lwrist 65.1187
lhand -35.649 14.3285
lfingers 7.12502
lthumb -8.77105 44.1262
rfemur -7.12021 13.4603 25.5497
rtibia 9.91872
rfoot -14.188 -21.18
rtoes 2.68846
lfemur -2.34625 -28.383 -4.79041
ltibia 0.545062
lfoot -10.0641 32.988
ltoes -9.04241
773
root 0.524244 17.4864 8.56451 6.32761 2.68637 -9.21394
lowerback 5.73178 0.329295 6.42816
upperback -6.25409 1.46104 3.88913
thorax -9.8683 0.419717 0.353904
lowerneck -9.86679 -5.42037 -3.27659
upperneck 14.6748 -7.9297 6.50468
head 6.48014 -3.51454 1.91777
rclavicle 1.58531e-014 -2.5842e-015
rhumerus -13.0293 18.908 -76.6017
rradius 87.2506
rwrist -15.8182
rhand 1.51104 -55.4346
rfingers 7.12502
rthumb 27.0369 -83.5192
lclavicle 1.58531e-014 -2.5842e-015
lhumerus -50.6167 -1.32161 89.6867
lradius 88.6764
lwrist 65.0131
lhand -35.4283 14.4251
lfingers 7.12502
lthumb -8.55813 44.2316
rfemur -6.78945 13.4461 25.7707
rtibia 9.84847
rfoot -14.3663 -21.5045
rtoes 2.57673
lfemur -2.22071 -28.4001 -4.75049
ltibia 0.607717
lfoot -10.1203 32.7358
ltoes -9.38204
774
root 0.505064 17.4816 8.58307 6.11647 2.96887 -9.27253
lowerback 5.52454 0.263705 6.27697
upperback -6.44252 1.33856 3.74901
thorax -9.95614 0.361094 0.308964
lowerneck -9.84665 -5.39727 -3.25815
upperneck 14.8814 -7.92456 6.55023
head 6.54337 -3.504 1.92895
rclavicle -7.7526e-015 -4.55217e-014
rhumerus -15.8517 18.7652 -77.6054
rradius 89.3613
rwrist -15.0991
rhand 1.56373 -54.8352
rfingers 7.12502
rthumb 27.0873 -82.9121
lclavicle -7.7526e-015 -4.55217e-014
lhumerus -50.8073 -1.46946 89.699
lradius 88.7496
lwrist 64.9592
lhand -35.4012 14.546
lfingers 7.12502
lthumb -8.53192 44.3536
rfemur -6.42241 13.4504 26.0238
rtibia 9.78267
rfoot -14.6233 -21.808
rtoes 2.79341
lfemur -2.01643 -28.5244 -4.72314
ltibia 0.61852
lfoot -10.2346 32.6113
ltoes -9.38419
775
root 0.485642 17.4786 8.6006 5.90887 3.23278 -9.29539
lowerback 5.3094 0.196129 6.04877
upperback -6.60875 1.20526 3.629
thorax -10.0159 0.304771 0.329047
lowerneck -9.99154 -5.38913 -3.28318
upperneck 15.2841 -7.93896 6.56666
head 6.69965 -3.49962 1.93065
rclavicle -1.50331e-014 5.56597e-015
rhumerus -18.592 18.401 -78.6536
rradius 91.2583
rwrist -14.6373
rhand 2.02978 -54.1031
rfingers 7.12502
rthumb 27.5331 -82.1097
lclavicle -1.50331e-014 5.56597e-015
lhumerus -50.9411 -1.48663 89.7231
lradius 88.7709
lwrist 64.9519
lhand -35.3984 14.7437
lfingers 7.12502
lthumb -8.52925 44.5515
rfemur -6.03118 13.4932 26.2418
rtibia 9.65599
rfoot -14.8347 -22.1126
rtoes 3.14623
lfemur -1.83408 -28.5048 -4.71301
ltibia 0.641621
lfoot -10.2217 32.3463
ltoes -9.62396
